<svg width="166" height="166" viewBox="0 0 166 166" fill="none" xmlns="http://www.w3.org/2000/svg">
<rect width="166" height="166" rx="83" fill="#1A1A1A"/>
<path d="M40.6011 125.399C40.6011 119.831 41.6978 114.318 43.8286 109.174C45.9594 104.03 49.0825 99.3554 53.0197 95.4182C56.9569 91.481 61.6311 88.3578 66.7753 86.227C71.9195 84.0962 77.433 82.9995 83.001 82.9995V125.399L40.6011 125.399Z" fill="white"/>
<path d="M83.001 82.9998C83.001 88.5678 84.0977 94.0813 86.2285 99.2255C88.3593 104.37 91.4824 109.044 95.4196 112.981C99.3568 116.918 104.031 120.041 109.175 122.172C114.319 124.303 119.833 125.4 125.401 125.4L125.401 82.9998L83.001 82.9998Z" fill="#FFD400"/>
<path d="M83.001 82.9996C83.001 77.4315 81.9043 71.918 79.7735 66.7738C77.6427 61.6296 74.5196 56.9555 70.5824 53.0183C66.6452 49.0811 61.971 45.9579 56.8268 43.8271C51.6826 41.6963 46.1691 40.5996 40.6011 40.5996L40.6011 82.9996H83.001Z" fill="#FFD400"/>
<path d="M125.401 40.5996C125.401 46.1676 124.304 51.6812 122.173 56.8254C120.043 61.9696 116.919 66.6437 112.982 70.5809C109.045 74.5181 104.371 77.6413 99.2267 79.772C94.0825 81.9028 88.569 82.9996 83.001 82.9996L83.001 40.5996H125.401Z" fill="white"/>
</svg>
